<?xml version="1.0" encoding="UTF-8"?>
<svg xmlns="http://www.w3.org/2000/svg" width="260" height="260" viewBox="0 0 260 260">
  <g fill-rule="evenodd" fill="#dddddd" fill-opacity="0.4">
    <path d="M24.37 16c.2.65.39 1.32.54 2H21.17l1.17 2.34.45.9-.24.11V28a5 5 0 0 1-2.23 8.94l-.02.06a8 8 0 0 1-7.75 6h-20a8 8 0 0 1-7.74-6l-.02-.06A5 5 0 0 1-17.45 28v-6.76l-.79-1.58-.44-.9.9-.44.63-.32H-20a23.01 23.01 0 0 1 44.37-2z"/>
    <path d="M159.5 21.02A9 9 0 0 0 151 15h-42a9 9 0 0 0-8.5 6.02 6 6 0 0 0 .02 11.96A8.99 8.99 0 0 0 109 45h42a9 9 0 0 0 8.48-12.02 6 6 0 0 0 .02-11.96z"/>
  </g>
</svg>
